# xmcd CD database file
#
# Track frame offsets:
#	150
#	12900
#	25425
#	40575
#	60150
#	75000
#	88125
#	101025
#	114900
#	127950
#	139425
#	152850
#	162075
#	171825
#	185025
#	200400
#	214200
#	229050
#	247425
#	257550
#	268800
#	281625
#	299925
#	313800
#	323475
#
# Disc length: 4502 seconds
#
# Revision: 1
# Processed by: cddbd v1.5.1PL2 Copyright (c) Steve Scherf et al.
# Submitted via: freeDBTagger 0.8.2.1
#
DISCID=6f119419
DTITLE=Sammy Davis Jr. - The Ultimate Sammy Davis Jr. Collection
DYEAR=2005
DGENRE=blues
TTITLE0=Let There Be Love
TTITLE1=Bye Bye Blackbird
TTITLE2=What Kind Of Fool Am I
TTITLE3=Lady Is A Tramp
TTITLE4=That Old Black Magic
TTITLE5=People
TTITLE6=You're Nobody Till Somebody Lo
TTITLE7=Me And My Shadow - Davis， Sam
TTITLE8=I've Gotta Be Me
TTITLE9=If I Ruled The World
TTITLE10=Who Can I Turn To (When Nobody
TTITLE11=Something's Gotta Give
TTITLE12=With A Song In My Heart (Live)
TTITLE13=Love Me Or Leave Me
TTITLE14=Falling In Love Again
TTITLE15=As Long As She Needs Me
TTITLE16=Climb Every Mountain
TTITLE17=Over The Rainbow
TTITLE18=Give Me The Moonlight Give Me
TTITLE19=Unforgettable
TTITLE20=Lazy River
TTITLE21=Ev'ry Time We Say Goodbye
TTITLE22=Teach Me Tonight - Davis， Sam
TTITLE23=Guys And Dolls
TTITLE24=Candy Man
EXTD=
EXTT0=
EXTT1=
EXTT2=
EXTT3=
EXTT4=
EXTT5=
EXTT6=
EXTT7=
EXTT8=
EXTT9=
EXTT10=
EXTT11=
EXTT12=
EXTT13=
EXTT14=
EXTT15=
EXTT16=
EXTT17=
EXTT18=
EXTT19=
EXTT20=
EXTT21=
EXTT22=
EXTT23=
EXTT24=
PLAYORDER=
